<svg width="1913.85" height="138.6" viewBox="0 0 1913.85 138.6" xmlns="http://www.w3.org/2000/svg">
	<g id="svgGroup" stroke-linecap="round" fill-rule="evenodd" font-size="9pt" stroke="#000" stroke-width="0.25mm" fill="none" style="stroke:#000;stroke-width:0.25mm;fill:none">
		<path d="M 31.35 107.55 L 0 107.55 L 0 1.5 L 32.85 1.5 A 62.857 62.857 0 0 1 46.646 2.919 Q 55.684 4.953 62.293 9.9 A 36.086 36.086 0 0 1 67.8 15 Q 77.281 25.801 79.176 44.57 A 98.416 98.416 0 0 1 79.65 54.45 Q 79.65 80.25 67.575 93.9 A 38.265 38.265 0 0 1 49.279 105.21 Q 42.96 107.075 35.327 107.453 A 80.25 80.25 0 0 1 31.35 107.55 Z M 9 99.75 L 30.6 99.75 Q 40.979 99.75 48.33 97.181 A 30.073 30.073 0 0 0 54.45 94.275 A 30.146 30.146 0 0 0 66.721 79.076 A 37.305 37.305 0 0 0 66.9 78.6 Q 70.348 69.222 70.626 56.673 A 100.47 100.47 0 0 0 70.65 54.45 A 91.087 91.087 0 0 0 70.043 43.65 Q 69.379 38.09 67.985 33.318 A 50.842 50.842 0 0 0 66.975 30.225 A 31.815 31.815 0 0 0 61.421 20.446 A 28.899 28.899 0 0 0 54.825 14.7 Q 48.172 10.461 37.775 9.55 A 68.495 68.495 0 0 0 31.8 9.3 L 9 9.3 L 9 99.75 Z" id="0" vector-effect="non-scaling-stroke"/>
		<path d="M 98.4 73.2 L 98.55 66.15 L 153.3 66.15 A 43.853 43.853 0 0 0 152.554 57.821 Q 151.599 52.883 149.419 48.963 A 24.953 24.953 0 0 0 147.525 46.05 A 18.419 18.419 0 0 0 137.044 39.263 Q 133.892 38.454 130.107 38.403 A 37.962 37.962 0 0 0 129.6 38.4 A 33.923 33.923 0 0 0 122.211 39.152 Q 117.528 40.198 114.111 42.698 A 18.668 18.668 0 0 0 110.25 46.5 Q 104.1 54.6 104.1 69.9 A 62.608 62.608 0 0 0 104.686 78.767 Q 105.33 83.261 106.684 86.913 A 26.291 26.291 0 0 0 110.1 93.375 A 18.347 18.347 0 0 0 118.888 99.754 Q 123.83 101.55 130.65 101.55 A 43.333 43.333 0 0 0 135.58 101.289 Q 140.862 100.682 144.06 98.665 A 11.939 11.939 0 0 0 144.675 98.25 Q 149.25 94.95 150.9 89.55 L 160.35 89.55 A 34.861 34.861 0 0 1 156.829 97.346 A 31.398 31.398 0 0 1 155.25 99.675 A 20.233 20.233 0 0 1 149.349 104.934 A 26.027 26.027 0 0 1 146.1 106.575 A 27.131 27.131 0 0 1 141.185 108.083 Q 138.634 108.627 135.62 108.865 A 63.275 63.275 0 0 1 130.65 109.05 A 47.562 47.562 0 0 1 120.38 108.011 Q 110.415 105.807 104.4 98.925 A 32.894 32.894 0 0 1 97.903 87.058 Q 96.359 82.193 95.828 76.324 A 71.371 71.371 0 0 1 95.55 69.9 Q 95.55 56.989 99.645 48.208 A 30.659 30.659 0 0 1 104.325 40.95 A 28.339 28.339 0 0 1 119.604 31.982 A 43.472 43.472 0 0 1 129.6 30.9 A 36.218 36.218 0 0 1 140.537 32.515 A 32.801 32.801 0 0 1 145.725 34.65 A 25.335 25.335 0 0 1 154.381 42.075 A 34.143 34.143 0 0 1 157.425 46.95 A 34.627 34.627 0 0 1 160.207 54.522 Q 161.131 58.236 161.535 62.638 A 79.51 79.51 0 0 1 161.85 69.9 L 161.85 73.2 L 98.4 73.2 Z" id="1" vector-effect="non-scaling-stroke"/>
		<path d="M 233.7 50.7 L 225.3 50.7 A 17.094 17.094 0 0 0 224.059 46.52 A 12.357 12.357 0 0 0 219.975 41.475 A 13.57 13.57 0 0 0 216.311 39.662 Q 212.764 38.481 207.573 38.405 A 49.332 49.332 0 0 0 206.85 38.4 Q 196.95 38.4 192.3 41.925 A 12.968 12.968 0 0 0 189.512 44.746 A 10.057 10.057 0 0 0 187.65 50.7 A 15.824 15.824 0 0 0 187.942 53.854 Q 188.305 55.636 189.12 56.966 A 7.299 7.299 0 0 0 191.55 59.4 A 23.496 23.496 0 0 0 194.368 60.856 Q 197.393 62.191 201.778 63.369 A 87.457 87.457 0 0 0 203.25 63.75 L 216 66.9 Q 226.05 69.3 230.7 74.25 A 16.602 16.602 0 0 1 234.749 82.008 A 24.584 24.584 0 0 1 235.35 87.6 A 18.997 18.997 0 0 1 229.837 101.045 A 26.401 26.401 0 0 1 228.15 102.675 A 21.928 21.928 0 0 1 220.963 106.803 Q 217.66 107.994 213.554 108.554 A 58.674 58.674 0 0 1 205.65 109.05 A 55.607 55.607 0 0 1 198.191 108.584 Q 194.514 108.084 191.507 107.052 A 22.409 22.409 0 0 1 185.55 104.025 Q 178.65 99 176.85 87.75 L 186 87.75 A 22.187 22.187 0 0 0 187.188 92.278 Q 188.513 95.7 190.95 97.95 A 10.474 10.474 0 0 0 194.196 99.915 Q 197.367 101.186 202.347 101.469 A 53.023 53.023 0 0 0 205.35 101.55 A 51.15 51.15 0 0 0 211.125 101.247 Q 217.025 100.575 220.607 98.406 A 13.296 13.296 0 0 0 221.625 97.725 Q 226.8 93.9 226.8 88.35 A 15.515 15.515 0 0 0 226.393 84.686 A 10.182 10.182 0 0 0 223.275 79.35 A 15.291 15.291 0 0 0 220.581 77.469 Q 217.078 75.497 211.2 73.95 L 198.45 70.65 A 54.004 54.004 0 0 1 192.84 68.873 Q 187.2 66.717 183.9 63.675 A 14.59 14.59 0 0 1 179.382 55.116 A 21.063 21.063 0 0 1 179.1 51.6 A 21.487 21.487 0 0 1 180.153 44.718 A 17.688 17.688 0 0 1 186 36.45 Q 192.9 30.9 206.85 30.9 A 51.676 51.676 0 0 1 213.88 31.346 Q 217.342 31.822 220.166 32.809 A 20.731 20.731 0 0 1 225.75 35.7 A 18.592 18.592 0 0 1 231.746 43.492 Q 233.108 46.676 233.7 50.7 Z" id="2" vector-effect="non-scaling-stroke"/>
		<path d="M 255.45 32.4 L 264 32.4 L 264 107.55 L 255.45 107.55 L 255.45 32.4 Z M 254.55 12.15 L 254.55 0 L 264.9 0 L 264.9 12.15 L 254.55 12.15 Z" id="3" vector-effect="non-scaling-stroke"/>
		<path d="M 306.214 105.48 A 37.843 37.843 0 0 0 315.9 106.65 A 37.666 37.666 0 0 0 322.903 106.028 A 27.371 27.371 0 0 0 332.7 102.225 A 25.313 25.313 0 0 0 338.756 96.787 A 30.294 30.294 0 0 0 343.125 89.325 A 38.495 38.495 0 0 0 343.981 87.067 Q 345.404 82.932 346.068 78.071 A 67.063 67.063 0 0 0 346.65 69 Q 346.65 62.813 345.713 57.542 A 44.025 44.025 0 0 0 343.125 48.45 A 33.85 33.85 0 0 0 341.488 45.023 A 26.51 26.51 0 0 0 332.7 35.4 A 26.779 26.779 0 0 0 323.854 31.731 A 36.258 36.258 0 0 0 315.9 30.9 A 39.215 39.215 0 0 0 308.541 31.559 A 28.466 28.466 0 0 0 298.575 35.4 A 26.314 26.314 0 0 0 292.568 40.609 A 30.638 30.638 0 0 0 287.775 48.45 A 37.848 37.848 0 0 0 286.942 50.563 Q 285.413 54.805 284.707 59.819 A 65.879 65.879 0 0 0 284.1 69 Q 284.1 78.064 286.227 85.079 A 32.901 32.901 0 0 0 292.35 96.75 A 26.335 26.335 0 0 0 306.214 105.48 Z M 342.6 106.65 L 351.15 106.65 Q 351.15 124.35 343.575 131.475 A 23.983 23.983 0 0 1 334.53 136.706 Q 330.819 137.934 326.295 138.366 A 54.188 54.188 0 0 1 321.15 138.6 A 65.483 65.483 0 0 1 314.189 138.252 Q 308.775 137.672 304.65 136.125 A 25.757 25.757 0 0 1 299.285 133.405 A 19.809 19.809 0 0 1 294.45 128.85 A 22.687 22.687 0 0 1 290.776 121.257 A 29.388 29.388 0 0 1 289.95 117.15 L 299.1 117.15 A 19.213 19.213 0 0 0 299.939 121.185 A 15.102 15.102 0 0 0 301.575 124.65 A 10.354 10.354 0 0 0 304.467 127.574 Q 305.72 128.435 307.324 129.096 A 19.987 19.987 0 0 0 308.25 129.45 Q 312.9 131.1 321.15 131.1 A 45.18 45.18 0 0 0 325.952 130.862 Q 331.208 130.298 334.425 128.4 Q 339 125.7 340.8 120.225 A 32.34 32.34 0 0 0 341.965 115.343 Q 342.362 112.916 342.511 110.127 A 65.345 65.345 0 0 0 342.6 106.65 Z M 318.75 99 A 26.726 26.726 0 0 0 326.204 98.017 A 19.502 19.502 0 0 0 336.45 91.05 A 26.945 26.945 0 0 0 340.864 82.246 Q 342.6 76.491 342.6 69 A 53.465 53.465 0 0 0 341.938 60.311 Q 341.175 55.688 339.534 51.943 A 25.909 25.909 0 0 0 336.45 46.65 A 19.986 19.986 0 0 0 322.394 38.768 A 29.469 29.469 0 0 0 318.75 38.55 A 31.297 31.297 0 0 0 310.779 39.507 A 21.552 21.552 0 0 0 299.4 46.65 A 27.233 27.233 0 0 0 294.234 56.638 Q 293.071 60.647 292.762 65.435 A 55.378 55.378 0 0 0 292.65 69 A 47.458 47.458 0 0 0 293.412 77.779 Q 294.353 82.774 296.457 86.709 A 24.606 24.606 0 0 0 299.4 91.05 A 21.894 21.894 0 0 0 312.125 98.371 A 33.112 33.112 0 0 0 318.75 99 Z M 342.6 51.3 L 342.6 32.4 L 351.15 32.4 L 351.15 107.55 L 342.6 107.55 L 342.6 52.2 L 342.6 51.3 Z" id="4" vector-effect="non-scaling-stroke"/>
		<path d="M 384.45 63.45 L 384.45 107.55 L 375.9 107.55 L 375.9 32.4 L 384.45 32.4 L 384.45 45 Q 387.9 38.55 393.75 34.725 A 21.175 21.175 0 0 1 399.673 32.11 Q 403.997 30.9 409.65 30.9 A 36.61 36.61 0 0 1 417.565 31.704 Q 424.743 33.294 429.375 38.025 Q 434.548 43.309 435.884 53.171 A 55.44 55.44 0 0 1 436.35 60.6 L 436.35 107.55 L 427.8 107.55 L 427.8 61.05 A 48.609 48.609 0 0 0 427.451 54.994 Q 426.446 47.024 422.55 43.35 Q 417.954 39.016 409.908 38.477 A 35.251 35.251 0 0 0 407.55 38.4 A 31.253 31.253 0 0 0 400.919 39.077 A 25.503 25.503 0 0 0 395.7 40.8 A 17.415 17.415 0 0 0 388.035 47.67 A 21.799 21.799 0 0 0 387.45 48.675 Q 385.234 52.718 384.655 58.848 A 48.986 48.986 0 0 0 384.45 63.45 Z" id="5" vector-effect="non-scaling-stroke"/>
		<path d="M 459 73.2 L 459.15 66.15 L 513.9 66.15 A 43.853 43.853 0 0 0 513.154 57.821 Q 512.199 52.883 510.019 48.963 A 24.953 24.953 0 0 0 508.125 46.05 A 18.419 18.419 0 0 0 497.644 39.263 Q 494.492 38.454 490.707 38.403 A 37.962 37.962 0 0 0 490.2 38.4 A 33.923 33.923 0 0 0 482.811 39.152 Q 478.128 40.198 474.711 42.698 A 18.668 18.668 0 0 0 470.85 46.5 Q 464.7 54.6 464.7 69.9 A 62.608 62.608 0 0 0 465.286 78.767 Q 465.93 83.261 467.284 86.913 A 26.291 26.291 0 0 0 470.7 93.375 A 18.347 18.347 0 0 0 479.488 99.754 Q 484.43 101.55 491.25 101.55 A 43.333 43.333 0 0 0 496.18 101.289 Q 501.462 100.682 504.66 98.665 A 11.939 11.939 0 0 0 505.275 98.25 Q 509.85 94.95 511.5 89.55 L 520.95 89.55 A 34.861 34.861 0 0 1 517.429 97.346 A 31.398 31.398 0 0 1 515.85 99.675 A 20.233 20.233 0 0 1 509.949 104.934 A 26.027 26.027 0 0 1 506.7 106.575 A 27.131 27.131 0 0 1 501.785 108.083 Q 499.234 108.627 496.22 108.865 A 63.275 63.275 0 0 1 491.25 109.05 A 47.562 47.562 0 0 1 480.98 108.011 Q 471.015 105.807 465 98.925 A 32.894 32.894 0 0 1 458.503 87.058 Q 456.959 82.193 456.428 76.324 A 71.371 71.371 0 0 1 456.15 69.9 Q 456.15 56.989 460.245 48.208 A 30.659 30.659 0 0 1 464.925 40.95 A 28.339 28.339 0 0 1 480.204 31.982 A 43.472 43.472 0 0 1 490.2 30.9 A 36.218 36.218 0 0 1 501.137 32.515 A 32.801 32.801 0 0 1 506.325 34.65 A 25.335 25.335 0 0 1 514.981 42.075 A 34.143 34.143 0 0 1 518.025 46.95 A 34.627 34.627 0 0 1 520.807 54.522 Q 521.731 58.236 522.135 62.638 A 79.51 79.51 0 0 1 522.45 69.9 L 522.45 73.2 L 459 73.2 Z" id="6" vector-effect="non-scaling-stroke"/>
		<path d="M 596.1 107.55 L 596.1 0 L 604.65 0 L 604.65 107.55 L 596.1 107.55 Z M 559.714 107.862 A 37.308 37.308 0 0 0 569.4 109.05 A 37.232 37.232 0 0 0 576.197 108.456 A 27.176 27.176 0 0 0 586.2 104.55 A 25.344 25.344 0 0 0 592.579 98.583 A 31.404 31.404 0 0 0 596.625 91.35 A 39.822 39.822 0 0 0 597.628 88.58 Q 598.95 84.465 599.579 79.611 A 73.318 73.318 0 0 0 600.15 70.2 A 84.707 84.707 0 0 0 600.086 66.873 Q 599.894 61.988 599.126 57.727 A 45.514 45.514 0 0 0 596.625 48.825 A 34.463 34.463 0 0 0 594.647 44.692 A 26.489 26.489 0 0 0 586.2 35.475 Q 579.3 30.9 569.4 30.9 A 38.712 38.712 0 0 0 562.182 31.543 A 28.241 28.241 0 0 0 552.075 35.475 A 26.276 26.276 0 0 0 545.77 41.152 A 31.639 31.639 0 0 0 541.275 48.825 Q 539.079 54.069 538.195 60.68 A 71.95 71.95 0 0 0 537.6 70.2 A 73.884 73.884 0 0 0 537.947 77.525 Q 539.292 91.011 545.85 99 A 26.29 26.29 0 0 0 559.714 107.862 Z M 572.25 101.4 Q 583.8 101.4 589.95 93.3 A 27.032 27.032 0 0 0 594.141 84.935 Q 595.304 81.213 595.777 76.716 A 62.422 62.422 0 0 0 596.1 70.2 A 60.236 60.236 0 0 0 595.499 61.405 Q 594.178 52.472 589.95 46.8 Q 583.8 38.55 572.25 38.55 A 30.758 30.758 0 0 0 564.279 39.525 A 21.506 21.506 0 0 0 552.9 46.8 A 27.254 27.254 0 0 0 548.055 56.05 Q 546.812 60.03 546.38 64.839 A 59.951 59.951 0 0 0 546.15 70.2 Q 546.15 80.58 549.382 87.656 A 24.963 24.963 0 0 0 552.9 93.3 Q 559.65 101.4 572.25 101.4 Z" id="7" vector-effect="non-scaling-stroke"/>
		<path d="M 666.45 0 L 675 0 L 675 107.55 L 666.45 107.55 L 666.45 0 Z M 693.746 108.219 A 36.258 36.258 0 0 0 701.7 109.05 Q 717 109.05 725.25 99 A 31.121 31.121 0 0 0 729.718 91.602 Q 733.5 82.895 733.5 70.2 A 81.327 81.327 0 0 0 733.435 66.921 Q 733.241 62.103 732.463 57.892 A 44.222 44.222 0 0 0 729.825 48.825 A 34.757 34.757 0 0 0 728.121 45.31 A 27.177 27.177 0 0 0 719.025 35.475 A 27.895 27.895 0 0 0 709.898 31.745 A 37.879 37.879 0 0 0 701.7 30.9 A 36.812 36.812 0 0 0 695.11 31.465 A 26.987 26.987 0 0 0 684.9 35.475 A 25.672 25.672 0 0 0 678.521 41.521 A 31.922 31.922 0 0 0 674.475 48.825 A 40.525 40.525 0 0 0 673.383 51.904 Q 672.117 55.978 671.51 60.767 A 75.102 75.102 0 0 0 670.95 70.2 Q 670.95 76.863 671.96 82.451 A 44.923 44.923 0 0 0 674.475 91.35 A 33.905 33.905 0 0 0 676.448 95.438 A 26.125 26.125 0 0 0 684.9 104.55 A 26.779 26.779 0 0 0 693.746 108.219 Z M 698.85 101.4 A 31.297 31.297 0 0 0 706.821 100.443 A 21.552 21.552 0 0 0 718.2 93.3 Q 723.689 86.713 724.715 75.562 A 58.612 58.612 0 0 0 724.95 70.2 A 54.688 54.688 0 0 0 724.257 61.202 Q 723.454 56.393 721.718 52.536 A 25.599 25.599 0 0 0 718.2 46.8 A 21.909 21.909 0 0 0 704.61 39.034 A 32.739 32.739 0 0 0 698.85 38.55 A 25.156 25.156 0 0 0 691.176 39.662 A 19.749 19.749 0 0 0 681.225 46.8 Q 676.368 53.237 675.301 63.875 A 63.431 63.431 0 0 0 675 70.2 Q 675 80.205 677.769 87.14 A 25.654 25.654 0 0 0 681.225 93.3 A 20.25 20.25 0 0 0 695.913 101.257 A 29.39 29.39 0 0 0 698.85 101.4 Z" id="9" vector-effect="non-scaling-stroke"/>
		<path d="M 776.55 117.75 L 800.85 32.4 L 809.85 32.4 L 784.2 120.15 A 39.892 39.892 0 0 1 782.263 125.569 Q 779.68 131.336 775.725 134.025 A 21.867 21.867 0 0 1 766.779 137.495 A 29.113 29.113 0 0 1 762.15 137.85 L 750.75 137.85 L 750.75 130.35 L 761.4 130.35 A 25.078 25.078 0 0 0 765.028 130.105 Q 766.88 129.834 768.374 129.261 A 10.146 10.146 0 0 0 771.3 127.575 Q 774.424 124.948 776.338 118.49 A 42.067 42.067 0 0 0 776.55 117.75 Z M 742.8 32.4 L 751.95 32.4 L 769.5 87.6 A 251.142 251.142 0 0 0 770.358 90.131 Q 771.581 93.675 772.425 95.7 Q 773.55 98.4 775.05 99.225 Q 776.158 99.834 777.838 99.994 A 13.39 13.39 0 0 0 779.1 100.05 L 785.1 100.05 L 785.1 107.55 L 778.35 107.55 A 27.69 27.69 0 0 1 775.37 107.4 Q 773.922 107.243 772.706 106.921 A 12.147 12.147 0 0 1 770.85 106.275 A 8.705 8.705 0 0 1 768.366 104.558 Q 766.997 103.237 765.825 101.175 A 33.249 33.249 0 0 1 764.461 98.464 Q 762.909 95.036 761.25 89.85 L 742.8 32.4 Z" id="10" vector-effect="non-scaling-stroke"/>
		<path d="M 903.9 1.5 L 912.9 1.5 L 912.9 77.7 A 55.067 55.067 0 0 1 912.263 86.383 Q 911.542 90.887 910.005 94.468 A 22.657 22.657 0 0 1 905.475 101.4 Q 899.176 107.89 887.532 108.874 A 51.474 51.474 0 0 1 883.2 109.05 Q 875.536 109.05 869.775 107.201 A 29.656 29.656 0 0 1 867.825 106.5 A 21.172 21.172 0 0 1 860.756 101.963 A 20.189 20.189 0 0 1 857.925 98.475 Q 854.4 93 853.95 84.6 L 862.95 84.6 A 26.101 26.101 0 0 0 863.504 89.32 Q 864.705 94.805 868.425 97.5 Q 873.6 101.25 883.2 101.25 Q 894.6 101.25 899.25 95.775 Q 903.9 90.3 903.9 77.7 L 903.9 1.5 Z" id="12" vector-effect="non-scaling-stroke"/>
		<path d="M 958.443 107.907 A 44.588 44.588 0 0 0 968.85 109.05 A 44.806 44.806 0 0 0 979.035 107.96 A 29.154 29.154 0 0 0 994.65 98.925 Q 1000.767 92.043 1002.727 81.107 A 63.638 63.638 0 0 0 1003.65 69.9 Q 1003.65 57.3 999.6 48.6 A 35.126 35.126 0 0 0 998.945 47.266 A 28.601 28.601 0 0 0 987.825 35.4 A 28.531 28.531 0 0 0 986.659 34.757 Q 982.51 32.592 977.409 31.643 A 46.758 46.758 0 0 0 968.85 30.9 A 44.907 44.907 0 0 0 958.443 32.034 A 29.144 29.144 0 0 0 943.05 40.95 Q 934.05 51 934.05 69.9 Q 934.05 88.8 943.05 98.925 A 29.098 29.098 0 0 0 958.443 107.907 Z M 968.85 101.4 A 31.401 31.401 0 0 0 976.83 100.443 A 21.814 21.814 0 0 0 988.275 93.3 A 26.296 26.296 0 0 0 993.117 84.303 Q 995.1 78.148 995.1 69.9 A 54.894 54.894 0 0 0 994.433 61.048 Q 993.677 56.43 992.064 52.727 A 24.571 24.571 0 0 0 988.275 46.575 A 22.184 22.184 0 0 0 975.136 39.116 A 33.22 33.22 0 0 0 968.85 38.55 Q 956.25 38.55 949.425 46.575 Q 944.029 52.92 942.899 63.813 A 59.072 59.072 0 0 0 942.6 69.9 A 55.031 55.031 0 0 0 943.267 78.759 Q 944.04 83.491 945.71 87.276 A 24.857 24.857 0 0 0 949.425 93.3 A 22.194 22.194 0 0 0 962.824 100.878 A 33.162 33.162 0 0 0 968.85 101.4 Z" id="13" vector-effect="non-scaling-stroke"/>
		<path d="M 1032.3 63.45 L 1032.3 107.55 L 1023.75 107.55 L 1023.75 0 L 1032.3 0 L 1032.3 45 Q 1035.75 38.55 1041.6 34.725 A 21.175 21.175 0 0 1 1047.523 32.11 Q 1051.847 30.9 1057.5 30.9 A 36.61 36.61 0 0 1 1065.415 31.704 Q 1072.593 33.294 1077.225 38.025 Q 1082.398 43.309 1083.734 53.171 A 55.44 55.44 0 0 1 1084.2 60.6 L 1084.2 107.55 L 1075.65 107.55 L 1075.65 61.05 A 48.609 48.609 0 0 0 1075.301 54.994 Q 1074.296 47.024 1070.4 43.35 Q 1065.804 39.016 1057.758 38.477 A 35.251 35.251 0 0 0 1055.4 38.4 A 31.253 31.253 0 0 0 1048.769 39.077 A 25.503 25.503 0 0 0 1043.55 40.8 A 17.415 17.415 0 0 0 1035.885 47.67 A 21.799 21.799 0 0 0 1035.3 48.675 Q 1033.084 52.718 1032.505 58.848 A 48.986 48.986 0 0 0 1032.3 63.45 Z" id="14" vector-effect="non-scaling-stroke"/>
		<path d="M 1117.35 63.45 L 1117.35 107.55 L 1108.8 107.55 L 1108.8 32.4 L 1117.35 32.4 L 1117.35 45 Q 1120.8 38.55 1126.65 34.725 A 21.175 21.175 0 0 1 1132.573 32.11 Q 1136.897 30.9 1142.55 30.9 A 36.61 36.61 0 0 1 1150.465 31.704 Q 1157.643 33.294 1162.275 38.025 Q 1167.448 43.309 1168.784 53.171 A 55.44 55.44 0 0 1 1169.25 60.6 L 1169.25 107.55 L 1160.7 107.55 L 1160.7 61.05 A 48.609 48.609 0 0 0 1160.351 54.994 Q 1159.346 47.024 1155.45 43.35 Q 1150.854 39.016 1142.808 38.477 A 35.251 35.251 0 0 0 1140.45 38.4 A 31.253 31.253 0 0 0 1133.819 39.077 A 25.503 25.503 0 0 0 1128.6 40.8 A 17.415 17.415 0 0 0 1120.935 47.67 A 21.799 21.799 0 0 0 1120.35 48.675 Q 1118.134 52.718 1117.555 58.848 A 48.986 48.986 0 0 0 1117.35 63.45 Z" id="15" vector-effect="non-scaling-stroke"/>
		<path d="M 1231.5 107.55 L 1231.5 1.5 L 1291.2 1.5 L 1291.2 9.3 L 1240.5 9.3 L 1240.5 50.55 L 1287.75 50.55 L 1287.75 58.35 L 1240.5 58.35 L 1240.5 99.75 L 1291.95 99.75 L 1291.95 107.55 L 1231.5 107.55 Z" id="17" vector-effect="non-scaling-stroke"/>
		<path d="M 1311.45 107.55 L 1311.45 32.4 L 1319.7 32.4 L 1319.7 44.4 Q 1323.3 38.1 1329.375 34.5 A 24.98 24.98 0 0 1 1337.277 31.541 A 35.027 35.027 0 0 1 1344.15 30.9 A 27.498 27.498 0 0 1 1352.285 32.066 A 23.844 23.844 0 0 1 1358.175 34.8 A 17.817 17.817 0 0 1 1364.332 41.658 Q 1365.653 44.166 1366.474 47.3 A 32.792 32.792 0 0 1 1366.5 47.4 L 1367.25 47.4 A 42.346 42.346 0 0 1 1370.341 41.909 Q 1373.487 37.235 1377.375 34.725 Q 1382.548 31.386 1390.407 30.962 A 43.502 43.502 0 0 1 1392.75 30.9 A 31.316 31.316 0 0 1 1398.586 31.421 A 24.774 24.774 0 0 1 1403.25 32.775 Q 1407.9 34.65 1411.05 38.325 A 21.98 21.98 0 0 1 1414.191 43.226 A 29.717 29.717 0 0 1 1415.85 47.625 A 38.662 38.662 0 0 1 1417.061 53.514 Q 1417.442 56.435 1417.492 59.732 A 66.451 66.451 0 0 1 1417.5 60.75 L 1417.5 107.55 L 1408.95 107.55 L 1409.1 61.2 Q 1409.1 50.759 1406.028 45.599 A 11.428 11.428 0 0 0 1404.3 43.35 Q 1400.496 39.546 1393.489 38.757 A 34.782 34.782 0 0 0 1389.6 38.55 A 24.728 24.728 0 0 0 1382.852 39.425 A 18.578 18.578 0 0 0 1374.45 44.4 A 17.184 17.184 0 0 0 1370.786 50.322 Q 1368.877 55.29 1368.758 62.613 A 60.591 60.591 0 0 0 1368.75 63.6 L 1368.75 107.55 L 1360.2 107.55 L 1360.5 61.2 A 62.463 62.463 0 0 0 1360.509 60.142 Q 1360.509 54.875 1359.584 51.066 A 19.381 19.381 0 0 0 1358.325 47.4 Q 1356 42.45 1351.65 40.5 A 21.113 21.113 0 0 0 1346.871 39.041 Q 1344.648 38.627 1342.104 38.562 A 37.482 37.482 0 0 0 1341.15 38.55 A 27.689 27.689 0 0 0 1334.717 39.254 A 18.507 18.507 0 0 0 1325.625 44.25 Q 1320 49.95 1320 63.3 L 1320 107.55 L 1311.45 107.55 Z" id="18" vector-effect="non-scaling-stroke"/>
		<path d="M 1442.1 107.55 L 1442.1 32.4 L 1450.35 32.4 L 1450.35 44.4 Q 1453.95 38.1 1460.025 34.5 A 24.98 24.98 0 0 1 1467.927 31.541 A 35.027 35.027 0 0 1 1474.8 30.9 A 27.498 27.498 0 0 1 1482.935 32.066 A 23.844 23.844 0 0 1 1488.825 34.8 A 17.817 17.817 0 0 1 1494.982 41.658 Q 1496.303 44.166 1497.124 47.3 A 32.792 32.792 0 0 1 1497.15 47.4 L 1497.9 47.4 A 42.346 42.346 0 0 1 1500.991 41.909 Q 1504.137 37.235 1508.025 34.725 Q 1513.198 31.386 1521.057 30.962 A 43.502 43.502 0 0 1 1523.4 30.9 A 31.316 31.316 0 0 1 1529.236 31.421 A 24.774 24.774 0 0 1 1533.9 32.775 Q 1538.55 34.65 1541.7 38.325 A 21.98 21.98 0 0 1 1544.841 43.226 A 29.717 29.717 0 0 1 1546.5 47.625 A 38.662 38.662 0 0 1 1547.711 53.514 Q 1548.092 56.435 1548.142 59.732 A 66.451 66.451 0 0 1 1548.15 60.75 L 1548.15 107.55 L 1539.6 107.55 L 1539.75 61.2 Q 1539.75 50.759 1536.678 45.599 A 11.428 11.428 0 0 0 1534.95 43.35 Q 1531.146 39.546 1524.139 38.757 A 34.782 34.782 0 0 0 1520.25 38.55 A 24.728 24.728 0 0 0 1513.502 39.425 A 18.578 18.578 0 0 0 1505.1 44.4 A 17.184 17.184 0 0 0 1501.436 50.322 Q 1499.527 55.29 1499.408 62.613 A 60.591 60.591 0 0 0 1499.4 63.6 L 1499.4 107.55 L 1490.85 107.55 L 1491.15 61.2 A 62.463 62.463 0 0 0 1491.159 60.142 Q 1491.159 54.875 1490.234 51.066 A 19.381 19.381 0 0 0 1488.975 47.4 Q 1486.65 42.45 1482.3 40.5 A 21.113 21.113 0 0 0 1477.521 39.041 Q 1475.298 38.627 1472.754 38.562 A 37.482 37.482 0 0 0 1471.8 38.55 A 27.689 27.689 0 0 0 1465.367 39.254 A 18.507 18.507 0 0 0 1456.275 44.25 Q 1450.65 49.95 1450.65 63.3 L 1450.65 107.55 L 1442.1 107.55 Z" id="19" vector-effect="non-scaling-stroke"/>
		<path d="M 1637.4 99.75 L 1637.4 107.55 L 1630.35 107.55 A 11.916 11.916 0 0 1 1627.167 107.147 A 8.714 8.714 0 0 1 1623 104.625 Q 1620.3 101.7 1620.3 93.15 L 1621.35 93.15 A 26.197 26.197 0 0 1 1616.307 100.667 A 23.482 23.482 0 0 1 1610.1 105.225 A 35.297 35.297 0 0 1 1596.864 108.904 A 42.83 42.83 0 0 1 1593.3 109.05 Q 1586.263 109.05 1581.094 107.069 A 23.367 23.367 0 0 1 1579.575 106.425 Q 1573.95 103.8 1571.025 98.7 A 21.459 21.459 0 0 1 1568.601 92.002 A 29.802 29.802 0 0 1 1568.1 86.4 Q 1568.1 81.3 1569.9 77.25 Q 1571.7 73.2 1575.225 70.425 A 21.812 21.812 0 0 1 1579.993 67.606 A 28.932 28.932 0 0 1 1583.925 66.225 A 38.049 38.049 0 0 1 1589.456 65.156 Q 1592.308 64.811 1595.494 64.8 A 60.811 60.811 0 0 1 1595.7 64.8 L 1620.3 64.8 L 1620.3 56.55 A 26.114 26.114 0 0 0 1619.817 51.357 Q 1618.753 46.12 1615.35 42.975 A 15.53 15.53 0 0 0 1609.735 39.729 Q 1607.359 38.919 1604.45 38.603 A 36.575 36.575 0 0 0 1600.5 38.4 A 34.117 34.117 0 0 0 1595.037 38.809 Q 1592.143 39.28 1589.81 40.29 A 15.946 15.946 0 0 0 1586.475 42.225 Q 1581.45 46.05 1580.55 52.2 L 1571.7 52.2 A 26.121 26.121 0 0 1 1573.259 45.696 A 21.88 21.88 0 0 1 1575.9 40.8 A 20.329 20.329 0 0 1 1582.332 35.062 A 26.341 26.341 0 0 1 1585.65 33.45 Q 1591.95 30.9 1600.95 30.9 A 46.841 46.841 0 0 1 1606.96 31.266 Q 1610.063 31.668 1612.744 32.511 A 28.628 28.628 0 0 1 1613.1 32.625 A 23.834 23.834 0 0 1 1618.17 34.945 A 19.727 19.727 0 0 1 1621.8 37.8 A 22.257 22.257 0 0 1 1626.574 44.986 A 26.118 26.118 0 0 1 1627.05 46.2 A 28.658 28.658 0 0 1 1628.428 51.743 Q 1628.85 54.553 1628.85 57.75 L 1628.85 99.75 L 1637.4 99.75 Z M 1620.3 79.95 L 1620.3 72.3 L 1595.85 72.3 A 34.582 34.582 0 0 0 1590.672 72.662 Q 1588.028 73.063 1585.891 73.91 A 14.762 14.762 0 0 0 1582.125 76.05 A 12.974 12.974 0 0 0 1577.174 85.259 A 17.55 17.55 0 0 0 1577.1 86.25 A 21.791 21.791 0 0 0 1577.095 86.704 Q 1577.095 93.576 1581.525 97.425 Q 1586.1 101.4 1594.8 101.4 A 41.401 41.401 0 0 0 1602.11 100.794 Q 1609.015 99.554 1613.55 95.775 A 18.34 18.34 0 0 0 1620 84.05 A 26.897 26.897 0 0 0 1620.3 79.95 Z" id="20" vector-effect="non-scaling-stroke"/>
		<path d="M 1662.3 63.45 L 1662.3 107.55 L 1653.75 107.55 L 1653.75 32.4 L 1662.3 32.4 L 1662.3 45 Q 1665.75 38.55 1671.6 34.725 A 21.175 21.175 0 0 1 1677.523 32.11 Q 1681.847 30.9 1687.5 30.9 A 36.61 36.61 0 0 1 1695.415 31.704 Q 1702.593 33.294 1707.225 38.025 Q 1712.398 43.309 1713.734 53.171 A 55.44 55.44 0 0 1 1714.2 60.6 L 1714.2 107.55 L 1705.65 107.55 L 1705.65 61.05 A 48.609 48.609 0 0 0 1705.301 54.994 Q 1704.296 47.024 1700.4 43.35 Q 1695.804 39.016 1687.758 38.477 A 35.251 35.251 0 0 0 1685.4 38.4 A 31.253 31.253 0 0 0 1678.769 39.077 A 25.503 25.503 0 0 0 1673.55 40.8 A 17.415 17.415 0 0 0 1665.885 47.67 A 21.799 21.799 0 0 0 1665.3 48.675 Q 1663.084 52.718 1662.505 58.848 A 48.986 48.986 0 0 0 1662.3 63.45 Z" id="21" vector-effect="non-scaling-stroke"/>
		<path d="M 1790.4 76.5 L 1790.4 32.55 L 1798.95 32.55 L 1798.95 107.7 L 1790.4 107.7 L 1790.4 94.95 Q 1787.1 101.4 1781.25 105.225 A 20.951 20.951 0 0 1 1775.54 107.772 Q 1772.902 108.531 1769.751 108.839 A 46.778 46.778 0 0 1 1765.2 109.05 A 36.61 36.61 0 0 1 1757.285 108.246 Q 1750.107 106.656 1745.475 101.925 Q 1740.302 96.641 1738.966 86.779 A 55.44 55.44 0 0 1 1738.5 79.35 L 1738.5 32.4 L 1747.05 32.4 L 1746.9 78.9 A 47.276 47.276 0 0 0 1747.259 84.956 Q 1748.119 91.593 1751.043 95.251 A 11.925 11.925 0 0 0 1752.3 96.6 A 17.864 17.864 0 0 0 1759.704 100.603 Q 1762.463 101.372 1765.753 101.517 A 35.294 35.294 0 0 0 1767.3 101.55 A 31.253 31.253 0 0 0 1773.931 100.873 A 25.503 25.503 0 0 0 1779.15 99.15 A 17.232 17.232 0 0 0 1786.615 92.538 A 21.801 21.801 0 0 0 1787.4 91.2 A 22.176 22.176 0 0 0 1789.342 86.096 Q 1789.987 83.559 1790.239 80.551 A 48.629 48.629 0 0 0 1790.4 76.5 Z" id="22" vector-effect="non-scaling-stroke"/>
		<path d="M 1821.9 73.2 L 1822.05 66.15 L 1876.8 66.15 A 43.853 43.853 0 0 0 1876.054 57.821 Q 1875.099 52.883 1872.919 48.963 A 24.953 24.953 0 0 0 1871.025 46.05 A 18.419 18.419 0 0 0 1860.544 39.263 Q 1857.392 38.454 1853.607 38.403 A 37.962 37.962 0 0 0 1853.1 38.4 A 33.923 33.923 0 0 0 1845.711 39.152 Q 1841.028 40.198 1837.611 42.698 A 18.668 18.668 0 0 0 1833.75 46.5 Q 1827.6 54.6 1827.6 69.9 A 62.608 62.608 0 0 0 1828.186 78.767 Q 1828.83 83.261 1830.184 86.913 A 26.291 26.291 0 0 0 1833.6 93.375 A 18.347 18.347 0 0 0 1842.388 99.754 Q 1847.33 101.55 1854.15 101.55 A 43.333 43.333 0 0 0 1859.08 101.289 Q 1864.362 100.682 1867.56 98.665 A 11.939 11.939 0 0 0 1868.175 98.25 Q 1872.75 94.95 1874.4 89.55 L 1883.85 89.55 A 34.861 34.861 0 0 1 1880.329 97.346 A 31.398 31.398 0 0 1 1878.75 99.675 A 20.233 20.233 0 0 1 1872.849 104.934 A 26.027 26.027 0 0 1 1869.6 106.575 A 27.131 27.131 0 0 1 1864.685 108.083 Q 1862.134 108.627 1859.12 108.865 A 63.275 63.275 0 0 1 1854.15 109.05 A 47.562 47.562 0 0 1 1843.88 108.011 Q 1833.915 105.807 1827.9 98.925 A 32.894 32.894 0 0 1 1821.403 87.058 Q 1819.859 82.193 1819.328 76.324 A 71.371 71.371 0 0 1 1819.05 69.9 Q 1819.05 56.989 1823.145 48.208 A 30.659 30.659 0 0 1 1827.825 40.95 A 28.339 28.339 0 0 1 1843.104 31.982 A 43.472 43.472 0 0 1 1853.1 30.9 A 36.218 36.218 0 0 1 1864.037 32.515 A 32.801 32.801 0 0 1 1869.225 34.65 A 25.335 25.335 0 0 1 1877.881 42.075 A 34.143 34.143 0 0 1 1880.925 46.95 A 34.627 34.627 0 0 1 1883.707 54.522 Q 1884.631 58.236 1885.035 62.638 A 79.51 79.51 0 0 1 1885.35 69.9 L 1885.35 73.2 L 1821.9 73.2 Z" id="23" vector-effect="non-scaling-stroke"/>
		<path d="M 1913.85 0 L 1913.85 107.55 L 1905.3 107.55 L 1905.3 0 L 1913.85 0 Z" id="24" vector-effect="non-scaling-stroke"/>
	</g>
</svg>